<?xml version="1.0" standalone="no"?>
<!DOCTYPE svg PUBLIC "-//W3C//DTD SVG 20010904//EN"
 "http://www.w3.org/TR/2001/REC-SVG-20010904/DTD/svg10.dtd">
<svg version="1.0" xmlns="http://www.w3.org/2000/svg"
 width="512.000000pt" height="512.000000pt" viewBox="0 0 512.000000 512.000000"
 preserveAspectRatio="xMidYMid meet">

<g transform="translate(0.000000,512.000000) scale(0.100000,-0.100000)"
fill="#000000" stroke="none">
<path d="M1837 4790 c-125 -16 -147 -34 -574 -462 -431 -432 -435 -437 -454
-576 -6 -40 -8 -713 -7 -1657 2 -1265 6 -1596 16 -1619 23 -52 69 -101 119
-126 l48 -25 1027 -3 1026 -2 4 -135 c4 -189 -8 -180 238 -180 l190 0 62 62
c60 60 62 64 66 122 l4 61 58 0 c58 0 79 12 93 52 5 15 34 17 274 20 262 3
269 4 316 28 53 26 101 80 118 130 9 23 15 29 28 24 9 -4 48 -9 87 -12 82 -5
127 13 180 70 17 18 101 146 188 285 109 176 159 264 164 295 10 55 -1 130
-25 167 -10 16 -150 164 -310 329 l-293 300 -2 1338 -3 1339 -23 47 c-26 52
-68 92 -122 117 -31 14 -159 16 -1235 17 -660 1 -1226 -2 -1258 -6z m2460
-172 l23 -21 0 -1265 0 -1265 -41 6 c-73 10 -128 -15 -389 -172 -265 -159
-310 -192 -339 -251 -50 -98 -34 -160 92 -357 53 -84 97 -156 97 -160 0 -4
-14 -22 -31 -40 l-32 -32 -19 25 c-15 18 -29 24 -57 24 -59 0 -75 -25 -79
-124 l-4 -81 -211 -213 -212 -212 -1044 0 -1045 0 -23 22 -23 21 0 1578 0
1578 388 3 387 3 48 25 c50 25 97 75 119 126 9 21 13 134 16 417 l3 387 1176
0 1177 0 23 -22z m-2560 -755 l-23 -23 -359 2 -360 3 380 380 380 380 3 -360
2 -359 -23 -23z m2684 -2080 c579 -592 539 -549 539 -587 0 -29 -30 -85 -151
-278 -82 -134 -159 -251 -171 -260 -40 -35 -72 -24 -254 92 -188 119 -214 133
-241 123 -10 -3 -88 -74 -173 -159 l-155 -152 -82 -4 c-104 -4 -124 -20 -131
-101 l-4 -55 -55 -4 c-81 -7 -97 -27 -101 -131 -2 -45 -9 -88 -14 -94 -7 -9
-44 -13 -119 -13 l-109 0 0 107 0 108 360 360 c239 239 360 368 360 381 0 11
-54 106 -120 211 -126 200 -137 230 -102 271 9 11 129 88 267 171 198 120 257
151 285 151 33 0 47 -12 171 -137z m-171 -1128 c68 -44 70 -46 70 -87 0 -29
-7 -49 -22 -65 -21 -22 -27 -23 -187 -23 l-166 0 110 110 c60 61 113 110 117
110 4 0 39 -20 78 -45z"/>
<path d="M1664 3353 c-55 -11 -76 -86 -35 -126 l22 -22 669 0 669 0 22 22 c29
29 29 77 0 106 l-22 22 -652 1 c-358 1 -662 0 -673 -3z"/>
<path d="M3264 3353 c-55 -11 -76 -86 -35 -126 21 -21 29 -22 211 -22 182 0
190 1 211 22 29 29 29 77 0 106 -20 21 -31 22 -194 24 -94 0 -182 -1 -193 -4z"/>
<path d="M1664 3033 c-55 -11 -76 -86 -35 -126 l22 -22 829 0 829 0 22 22 c29
29 29 77 0 106 l-22 22 -812 1 c-446 1 -822 0 -833 -3z"/>
<path d="M1664 2553 c-55 -11 -76 -86 -35 -126 l22 -22 909 0 909 0 22 22 c29
29 29 77 0 106 l-22 22 -892 1 c-490 1 -902 0 -913 -3z"/>
<path d="M1664 2233 c-55 -11 -76 -86 -35 -126 l22 -22 509 0 509 0 22 22 c29
29 29 77 0 106 l-22 22 -492 1 c-270 1 -502 0 -513 -3z"/>
<path d="M1144 1089 c-16 -18 -19 -37 -19 -130 0 -98 2 -110 22 -130 13 -14
34 -22 53 -22 19 0 40 8 53 22 20 20 22 32 22 130 0 128 -12 151 -75 151 -25
0 -43 -7 -56 -21z"/>
<path d="M1544 1089 c-16 -18 -19 -37 -19 -130 0 -98 2 -110 22 -130 13 -14
34 -22 53 -22 19 0 40 8 53 22 20 20 22 32 22 130 0 128 -12 151 -75 151 -25
0 -43 -7 -56 -21z"/>
<path d="M1944 1089 c-16 -18 -19 -37 -19 -130 0 -98 2 -110 22 -130 13 -14
34 -22 53 -22 19 0 40 8 53 22 20 20 22 32 22 130 0 128 -12 151 -75 151 -25
0 -43 -7 -56 -21z"/>
<path d="M2344 1089 c-16 -18 -19 -37 -19 -130 0 -98 2 -110 22 -130 13 -14
34 -22 53 -22 19 0 40 8 53 22 20 20 22 32 22 130 0 128 -12 151 -75 151 -25
0 -43 -7 -56 -21z"/>
<path d="M2744 1089 c-16 -18 -19 -37 -19 -130 0 -98 2 -110 22 -130 13 -14
34 -22 53 -22 19 0 40 8 53 22 20 20 22 32 22 130 0 128 -12 151 -75 151 -25
0 -43 -7 -56 -21z"/>
<path d="M3144 1089 c-16 -18 -19 -37 -19 -130 0 -98 2 -110 22 -130 13 -14
34 -22 53 -22 19 0 40 8 53 22 20 20 22 32 22 130 0 128 -12 151 -75 151 -25
0 -43 -7 -56 -21z"/>
<path d="M4210 1667 c-34 -17 -53 -58 -41 -89 5 -12 106 -119 224 -237 189
-188 219 -214 247 -214 41 0 73 32 73 73 0 28 -26 58 -219 250 -120 120 -228
221 -239 224 -11 3 -31 0 -45 -7z"/>
</g>
</svg>
