<?xml version="1.0" standalone="no"?>
<!DOCTYPE svg PUBLIC "-//W3C//DTD SVG 20010904//EN"
 "http://www.w3.org/TR/2001/REC-SVG-20010904/DTD/svg10.dtd">
<svg version="1.0" xmlns="http://www.w3.org/2000/svg"
 width="255.000000pt" height="231.000000pt" viewBox="0 0 255.000000 231.000000"
 preserveAspectRatio="xMidYMid meet">

<g transform="translate(0.000000,231.000000) scale(0.100000,-0.100000)"
fill="#000000" stroke="none">
<path d="M565 2300 c-11 -4 -33 -22 -49 -39 -26 -27 -37 -31 -80 -31 -105 -1
-189 -19 -271 -60 -77 -38 -176 -113 -164 -124 3 -3 23 10 44 29 52 45 144 94
209 111 58 16 140 19 132 5 -4 -5 0 -12 6 -14 7 -3 -8 -6 -34 -6 -52 -1 -80
-9 -73 -21 3 -5 -12 -11 -32 -15 -42 -7 -117 -44 -92 -45 9 0 24 -9 33 -19 18
-19 17 -20 -20 -36 -37 -15 -54 -30 -54 -48 0 -5 13 1 29 12 43 31 54 27 38
-11 -8 -20 -11 -44 -6 -60 4 -15 5 -28 4 -30 -12 -12 -45 -214 -45 -273 0 -66
-2 -73 -30 -100 l-29 -28 -20 24 c-11 13 -20 29 -21 36 0 6 -4 14 -10 18 -5 3
-8 -10 -5 -32 l4 -38 -15 30 c-13 27 -14 7 -12 -192 2 -123 6 -223 9 -223 4 0
24 -17 45 -38 47 -47 130 -80 224 -88 39 -4 70 -10 70 -13 0 -3 -13 -25 -28
-47 -15 -23 -32 -50 -38 -60 -10 -18 -13 -17 -37 12 -45 53 -247 144 -247 111
0 -7 20 -18 44 -25 44 -11 44 -12 39 -49 -5 -37 -3 -38 40 -56 87 -35 158
-115 156 -174 -1 -24 -2 -23 -8 9 -10 50 -33 81 -87 119 -43 30 -174 83 -182
74 -8 -8 10 -25 25 -25 33 0 162 -71 192 -106 39 -44 37 -62 -9 -88 -28 -17
-52 -21 -122 -21 -86 0 -88 -1 -88 -24 0 -20 3 -22 22 -16 50 16 94 16 123 0
l30 -16 -37 7 c-27 4 -38 3 -38 -6 0 -10 -3 -10 -14 -1 -16 14 -86 5 -86 -11
0 -6 38 -9 95 -7 75 2 98 0 112 -13 10 -9 41 -27 68 -40 l50 -24 -3 -69 c-2
-39 -7 -112 -13 -164 -7 -68 -6 -97 2 -107 14 -17 159 -20 176 -3 8 8 13 8 17
0 10 -15 59 -14 78 2 17 13 37 91 37 142 0 17 4 41 9 55 9 25 9 25 17 -10 4
-19 9 -57 10 -85 7 -121 6 -118 50 -128 38 -8 163 -2 213 10 12 3 22 13 22 22
0 9 4 21 10 27 5 5 12 56 15 114 10 167 11 175 29 203 14 20 18 49 19 124 1
88 -3 110 -36 209 -41 122 -74 180 -126 219 -20 14 -35 35 -37 49 -2 21 2 25
24 24 83 -2 140 26 156 77 3 11 27 31 53 45 62 33 104 92 110 156 2 27 13 65
23 84 50 95 60 276 20 362 -47 99 -220 283 -304 322 -36 17 -61 37 -71 55 -29
58 -59 71 -154 70 -47 0 -95 -4 -106 -9z m154 -10 c32 -9 106 -58 99 -66 -2
-2 -26 4 -53 12 -36 11 -77 14 -142 11 -92 -4 -108 3 -55 25 68 27 105 31 151
18z m-242 -231 c15 -5 31 -16 35 -22 6 -9 8 -9 8 1 0 6 7 12 15 12 8 0 15 -4
15 -9 0 -5 14 -14 30 -21 45 -19 146 -135 181 -207 35 -73 42 -117 19 -118 -8
0 -15 -4 -16 -10 -1 -28 -17 -76 -26 -81 -7 -5 -8 -2 -3 6 5 9 4 11 -4 6 -7
-5 -16 -19 -21 -32 -5 -13 -22 -30 -36 -36 -32 -15 -34 -12 -105 123 -40 76
-44 89 -29 89 11 0 22 5 25 10 3 6 19 10 34 10 16 0 33 6 39 13 15 18 25 107
13 107 -21 0 -26 3 -39 21 -14 21 -47 25 -57 9 -5 -8 -11 -8 -20 0 -22 19 -65
-15 -50 -40 3 -4 -2 -13 -10 -20 -20 -17 -19 -36 3 -52 14 -11 82 -189 82
-216 0 -12 -83 3 -110 20 -44 28 -77 -29 -41 -73 16 -20 28 -24 78 -24 32 0
66 4 77 9 14 7 18 6 14 -4 -6 -20 -89 -42 -113 -31 -11 5 -33 12 -50 16 -42 9
-97 71 -125 141 -18 45 -24 85 -28 168 -5 117 -22 130 -22 17 0 -112 41 -238
114 -343 20 -30 23 -43 16 -60 -5 -13 -9 -18 -10 -13 0 6 -4 4 -9 -4 -8 -12
-16 -10 -53 8 -23 13 -54 33 -68 44 -22 20 -23 20 -10 2 13 -19 13 -19 -5 -3
-16 14 -16 21 -6 46 19 45 11 86 -16 90 -21 3 -23 9 -23 55 0 72 25 209 48
261 27 60 86 123 124 131 17 4 33 3 37 -1 9 -13 44 -17 37 -6 -5 9 7 19 26 21
4 1 19 -4 35 -10z m263 -9 c0 -5 -4 -10 -10 -10 -5 0 -10 5 -10 10 0 6 5 10
10 10 6 0 10 -4 10 -10z m273 -27 c13 -21 29 -48 36 -60 11 -22 10 -22 -21
-16 -18 3 -30 2 -26 -2 4 -4 -1 -15 -10 -24 -11 -10 -12 -12 -2 -6 13 9 13 8
1 -7 -11 -15 -11 -21 -1 -33 9 -10 9 -15 1 -15 -6 0 -11 4 -11 8 0 4 -31 42
-70 83 -69 74 -95 115 -42 68 19 -17 36 -24 56 -21 25 3 28 7 24 33 -4 25 -1
29 19 29 15 0 30 -12 46 -37z m-287 0 c10 -11 13 -10 17 8 6 21 6 21 36 3 16
-10 27 -22 24 -27 -3 -5 -9 -3 -14 4 -4 7 -10 11 -13 8 -3 -3 5 -16 19 -29 14
-13 25 -18 25 -12 0 7 -5 12 -12 12 -6 0 -9 2 -6 5 3 3 26 -8 52 -25 46 -31
73 -66 67 -85 -9 -30 -9 -45 1 -51 7 -4 8 -2 4 4 -4 7 -3 12 3 12 20 0 21 -19
1 -25 -11 -3 -20 -11 -20 -16 0 -6 5 -7 12 -3 7 4 8 3 4 -5 -4 -6 -11 -9 -15
-6 -9 5 -51 -28 -54 -42 -1 -4 -6 -7 -11 -5 -5 2 -6 -7 -3 -18 10 -37 -21 -3
-34 38 -16 53 -91 171 -138 217 -22 22 -40 43 -41 47 0 8 50 15 70 9 8 -2 20
-10 26 -18z m-185 -119 c11 -14 13 -14 21 0 5 9 16 16 25 16 12 0 14 -7 9 -32
-6 -30 -5 -30 12 -15 10 10 24 17 30 17 15 0 16 -26 2 -35 -5 -3 -10 -17 -10
-30 0 -30 -14 -39 -38 -26 -14 8 -22 5 -36 -10 -20 -24 -40 -15 -32 15 4 18 1
22 -16 22 -30 -1 -36 30 -7 39 16 5 18 9 9 15 -14 8 -7 40 8 40 5 0 15 -7 23
-16z m550 -370 c61 -58 59 -161 -5 -222 -41 -40 -74 -52 -146 -52 -49 0 -60
-3 -65 -19 -10 -32 -90 -98 -162 -135 -202 -101 -478 -117 -618 -35 -44 27
-75 85 -75 141 l1 43 21 -25 21 -25 -8 30 c-17 59 -8 108 26 138 28 26 37 28
88 24 31 -2 76 -12 101 -21 65 -25 146 -7 207 46 51 44 77 52 140 45 52 -6
128 -53 128 -80 0 -25 23 -37 73 -37 56 0 101 22 127 60 24 37 33 37 45 4 15
-40 12 -53 -15 -60 -27 -7 -34 -24 -10 -24 27 0 55 38 55 76 0 27 5 37 20 41
11 3 20 9 20 14 0 14 -40 31 -60 26 -15 -4 -19 3 -22 35 -2 21 -1 41 2 44 13
14 84 -7 111 -32z m-461 -9 c7 -9 8 -15 2 -15 -5 0 -12 7 -16 15 -3 8 -4 15
-2 15 2 0 9 -7 16 -15z m-177 -49 c19 -6 19 -27 -1 -34 -6 -2 -28 13 -49 33
l-38 36 35 -15 c19 -8 43 -17 53 -20z m356 -15 c-18 -59 -30 -65 -56 -24 -21
31 -21 34 -5 39 9 3 28 11 42 18 14 7 26 12 28 10 2 -1 -2 -21 -9 -43z m-654
-1 c-3 -5 -14 -10 -23 -10 -15 0 -15 2 -2 10 20 13 33 13 25 0z m90 -20 c3 -5
2 -10 -4 -10 -5 0 -13 5 -16 10 -3 6 -2 10 4 10 5 0 13 -4 16 -10z m487 -402
c-9 -9 -12 -7 -12 12 0 19 3 21 12 12 9 -9 9 -15 0 -24z m-34 -2 c2 -9 -10
-32 -26 -51 -29 -32 -30 -33 -36 -12 -9 35 -7 65 6 73 8 5 9 1 5 -12 -5 -15
-3 -14 10 4 18 25 36 24 41 -2z m127 -5 c3 -16 2 -47 -4 -67 -6 -21 -9 -40 -6
-42 5 -6 25 68 25 96 0 12 4 22 8 22 10 0 43 -44 67 -89 20 -41 16 -115 -11
-196 l-17 -49 -14 39 c-27 79 -110 135 -203 137 l-49 1 32 45 c28 40 139 132
158 132 4 0 10 -13 14 -29z m-212 -18 c3 -5 8 -22 11 -40 7 -28 4 -33 -23 -47
-16 -9 -35 -16 -41 -16 -11 0 -40 58 -40 79 0 17 85 38 93 24z m-193 -35 c7
-18 9 -19 9 -5 1 9 5 17 10 17 5 0 22 3 38 6 27 5 31 3 36 -23 3 -15 9 -36 12
-45 6 -15 1 -18 -28 -18 -20 0 -38 4 -42 10 -3 5 -12 7 -19 4 -17 -6 -52 25
-61 54 -5 18 -2 22 15 22 12 0 24 -9 30 -22z m17 -79 c21 -7 64 -9 105 -7 68
5 68 5 51 -14 -10 -11 -29 -27 -44 -35 -14 -9 -34 -30 -44 -47 -30 -51 -89
-115 -106 -116 -13 0 -17 17 -23 93 -4 50 -11 96 -17 102 -6 6 -7 -25 -3 -83
4 -53 3 -92 -2 -92 -5 0 -18 -3 -29 -6 -18 -5 -20 -1 -17 40 2 27 -2 57 -11
75 -14 27 -13 32 10 73 14 23 32 51 40 60 15 16 17 16 34 -7 11 -13 36 -29 56
-36z m332 -54 c50 -25 84 -66 96 -118 5 -20 1 -36 -16 -61 -29 -42 -107 -96
-140 -96 -21 0 -27 7 -37 44 -19 71 -80 132 -146 145 l-29 6 27 32 c61 72 160
92 245 48z m199 -47 c11 -35 23 -89 26 -121 9 -68 7 -69 -87 -65 l-65 3 22 28
c12 15 33 29 46 32 36 7 49 25 18 25 -26 0 -26 1 -12 29 8 16 17 52 21 80 3
28 7 51 9 51 2 0 12 -28 22 -62z m-388 -73 c0 -2 -16 -12 -36 -24 -31 -19 -38
-20 -62 -7 l-26 14 33 20 c27 16 39 18 62 10 16 -5 29 -11 29 -13z m44 -46
c35 -41 33 -62 -6 -77 -29 -11 -35 -10 -46 5 -13 19 -14 17 35 50 10 7 1 5
-20 -4 -35 -16 -38 -16 -51 3 -13 17 -12 21 12 36 37 24 46 23 76 -13z m-274
-14 c0 -8 -7 -15 -15 -15 -26 0 -18 20 13 29 1 1 2 -6 2 -14z m154 -6 c14 -11
33 -34 42 -51 14 -27 14 -32 -1 -55 -16 -23 -21 -25 -68 -19 -29 4 -55 13 -60
19 -14 21 0 91 23 109 28 23 32 22 64 -3z m-202 -11 c-7 -7 -12 -8 -12 -2 0
14 12 26 19 19 2 -3 -1 -11 -7 -17z m-32 8 c0 -2 -8 -10 -17 -17 -16 -13 -17
-12 -4 4 13 16 21 21 21 13z m65 -26 c3 -5 1 -10 -4 -10 -6 0 -11 5 -11 10 0
6 2 10 4 10 3 0 8 -4 11 -10z m-115 -10 c-8 -5 -19 -10 -25 -10 -5 0 -3 5 5
10 8 5 20 10 25 10 6 0 3 -5 -5 -10z m88 -10 c7 -11 19 -20 27 -20 19 0 19 -9
-2 -32 -20 -22 -45 -23 -83 -3 -40 21 -42 37 -6 57 40 22 49 22 64 -2z m352
-19 c0 -10 -45 -41 -60 -41 -19 0 -10 27 13 38 28 13 47 15 47 3z m250 -36 c0
-31 -3 -35 -25 -35 -22 0 -25 4 -25 35 0 31 3 35 25 35 22 0 25 -4 25 -35z
m41 22 c-1 -4 -1 -18 -1 -32 0 -16 -6 -25 -15 -25 -15 0 -20 26 -9 55 6 15 26
17 25 2z m-101 -27 c0 -28 -2 -30 -40 -30 -48 0 -54 22 -12 44 41 23 52 20 52
-14z m-450 -5 l23 -25 -47 0 -47 0 18 25 c22 31 24 31 53 0z m350 -14 c0 -14
-9 -20 -35 -23 -28 -3 -35 -1 -35 13 0 12 10 19 28 22 15 2 30 5 35 6 4 0 7
-8 7 -18z m-374 -39 c8 -5 9 -24 1 -70 -8 -52 -7 -66 4 -72 11 -7 10 -10 -4
-16 -9 -3 -24 -3 -33 0 -14 5 -16 16 -10 71 9 92 16 105 42 87z m99 -183 c41
-6 76 -15 76 -20 1 -5 2 -13 3 -18 0 -5 5 -13 10 -18 5 -5 6 -3 2 5 -4 7 -1
12 8 12 9 0 16 -9 16 -20 0 -22 8 -22 -145 0 -33 4 -73 7 -89 6 -24 -1 -29 3
-31 24 -4 43 21 48 150 29z m386 -19 c35 -10 38 -12 26 -31 -10 -16 -9 -22 3
-30 11 -8 8 -9 -15 -5 -16 4 -67 9 -112 13 -72 5 -83 8 -83 24 0 11 -1 22 -2
26 -8 22 105 24 183 3z m74 -60 c3 -5 -1 -10 -10 -10 -9 0 -13 5 -10 10 3 6 8
10 10 10 2 0 7 -4 10 -10z m-595 -15 c-7 -8 -10 -22 -6 -30 3 -9 0 -15 -9 -15
-10 0 -13 8 -11 23 3 12 5 25 5 30 1 4 8 7 17 7 13 0 14 -3 4 -15z"/>
<path d="M298 1983 c6 -2 18 -2 25 0 6 3 1 5 -13 5 -14 0 -19 -2 -12 -5z"/>
<path d="M670 2030 c-13 -8 -12 -10 3 -10 11 0 15 -4 11 -12 -4 -7 -3 -8 4 -4
6 4 9 13 5 21 -6 18 -4 17 -23 5z"/>
<path d="M880 1810 c0 -5 5 -10 11 -10 5 0 7 5 4 10 -3 6 -8 10 -11 10 -2 0
-4 -4 -4 -10z"/>
<path d="M515 1428 c-98 -77 -38 -228 90 -228 106 0 159 111 93 195 -43 55
-134 72 -183 33z m35 -129 c0 -12 -7 -19 -19 -19 -26 0 -36 17 -21 35 15 18
40 8 40 -16z m137 12 c16 14 17 1 3 -35 -10 -27 -56 -56 -89 -56 -29 0 -72 22
-68 34 2 6 18 10 36 8 37 -4 81 21 81 45 0 13 3 14 12 5 8 -8 15 -9 25 -1z"/>
<path d="M99 1351 c-33 -34 -38 -79 -15 -135 19 -45 52 -66 102 -66 53 0 101
37 109 84 21 109 -120 193 -196 117z m48 -114 c-2 -7 -13 -13 -25 -15 -16 -3
-22 2 -22 16 0 10 3 22 6 25 10 10 46 -13 41 -26z m123 -22 c0 -30 -86 -57
-119 -36 -22 14 -3 31 34 31 19 0 37 5 40 10 10 16 45 12 45 -5z"/>
<path d="M375 1180 c-3 -5 3 -10 14 -10 12 0 21 5 21 10 0 6 -6 10 -14 10 -8
0 -18 -4 -21 -10z"/>
<path d="M2165 2225 c-5 -2 -22 -6 -38 -9 -15 -4 -44 -22 -65 -40 -36 -32 -41
-34 -160 -44 -108 -10 -132 -16 -195 -46 -97 -46 -168 -104 -223 -182 -27 -38
-61 -73 -83 -84 -66 -33 -101 -78 -116 -148 -5 -22 -2 -40 8 -55 13 -20 13
-31 -4 -97 -32 -127 -20 -208 36 -244 13 -9 36 -37 51 -63 15 -27 37 -58 48
-71 12 -13 22 -40 23 -63 2 -22 9 -52 18 -68 16 -32 61 -71 81 -71 7 0 28 -15
47 -33 41 -39 144 -77 205 -77 53 0 52 -17 0 -42 -34 -16 -38 -16 -89 4 -78
30 -224 37 -285 13 -42 -16 -49 -24 -77 -83 -17 -37 -30 -79 -29 -99 4 -110
163 -203 344 -203 96 0 150 14 188 50 l27 25 12 -25 c11 -26 10 -56 -10 -234
-7 -62 -7 -92 1 -100 15 -15 147 -21 164 -7 10 8 16 9 21 1 7 -11 54 -14 79
-4 19 7 45 93 44 146 0 20 4 44 10 53 8 15 10 12 15 -16 5 -33 8 -85 11 -158
1 -29 6 -36 31 -43 17 -5 73 -7 125 -4 52 3 100 6 107 6 16 0 35 62 38 129 2
31 8 99 14 151 6 52 11 110 11 128 l0 32 -66 0 -65 0 15 22 c9 12 31 30 49 40
29 16 30 17 8 18 -18 0 -22 4 -16 18 5 9 13 42 20 71 13 61 18 58 40 -20 l15
-54 -4 55 c-6 74 -59 208 -101 258 -38 44 -42 52 -22 52 6 0 29 5 50 11 38 10
61 35 72 79 6 25 6 25 -57 22 -62 -4 -63 -4 -93 -48 -16 -25 -44 -56 -62 -69
l-31 -25 5 39 c4 29 -1 47 -19 77 -14 21 -30 56 -37 76 -22 66 -100 110 -166
94 -36 -9 -84 -57 -86 -86 -4 -66 2 -83 40 -121 23 -24 48 -39 63 -39 17 0 27
-8 35 -30 10 -26 16 -30 45 -29 28 2 29 3 7 6 -33 5 -47 37 -38 87 7 43 30 66
66 66 23 0 23 -1 8 -30 -8 -16 -28 -36 -43 -44 -15 -9 -20 -15 -12 -16 24 0
60 29 71 57 11 28 23 23 45 -19 10 -20 13 -39 8 -57 -12 -45 -13 -51 -2 -51 6
0 3 -9 -7 -20 -10 -11 -30 -20 -44 -20 -20 0 -23 2 -11 10 28 18 2 10 -48 -15
-91 -46 -165 -60 -317 -60 -134 0 -143 1 -203 29 -35 16 -71 41 -82 55 -22 32
-34 91 -25 122 l8 23 14 -27 c17 -34 26 -35 13 -1 -20 51 -12 103 19 135 26
26 36 29 88 29 32 -1 69 -7 83 -15 55 -32 190 -9 229 39 51 62 167 60 247 -3
16 -13 20 -21 12 -24 -25 -8 2 -20 56 -25 69 -6 118 17 150 70 25 42 38 39 51
-14 6 -24 3 -29 -27 -42 -24 -11 -28 -15 -13 -15 11 -1 31 6 43 15 19 13 22
24 22 80 0 63 -1 64 -24 58 -21 -5 -24 -2 -28 31 -4 33 -2 37 24 42 l28 6 0
177 c0 97 -3 179 -6 183 -10 10 -54 -24 -48 -37 3 -6 -10 7 -30 29 -20 22 -48
52 -63 68 -30 29 -23 35 17 12 32 -18 54 -19 47 -1 -3 8 2 16 13 19 13 3 17
11 13 26 -4 16 -1 21 14 21 10 0 24 -5 31 -12 9 -9 12 -3 12 29 0 37 -5 46
-50 86 -27 25 -69 53 -92 63 -31 12 -48 27 -60 54 -11 21 -33 45 -55 57 -36
19 -106 35 -128 28z m81 -40 c28 -8 61 -26 74 -40 27 -29 25 -29 -55 -10 -70
17 -136 19 -184 5 -33 -9 -33 -9 -16 11 16 17 89 46 121 48 6 1 33 -6 60 -14z
m-347 -81 c41 -9 29 -24 -19 -24 -31 0 -38 -3 -34 -15 5 -12 -2 -15 -34 -15
-26 0 -48 -7 -63 -21 -13 -11 -18 -18 -11 -14 8 4 12 -2 12 -18 0 -21 -7 -26
-45 -36 -26 -6 -49 -19 -55 -31 -13 -25 5 -27 34 -5 22 16 51 20 42 6 -3 -5 1
-14 9 -21 11 -9 11 -17 3 -35 -6 -14 -15 -22 -21 -18 -6 3 -7 1 -3 -6 9 -14
-2 -51 -15 -51 -6 0 -7 6 -3 13 4 6 3 9 -1 4 -5 -4 -9 -16 -10 -27 -1 -16 1
-17 12 -8 12 9 12 7 4 -13 -16 -37 -32 -161 -38 -284 -5 -101 -7 -112 -31
-137 -14 -16 -29 -28 -32 -28 -4 0 -14 15 -23 33 l-17 32 5 -31 c8 -43 -21
-56 -37 -16 -27 66 -5 230 44 325 10 21 17 41 14 44 -8 8 -65 -117 -82 -179
-7 -29 -14 -72 -14 -96 0 -30 -3 -41 -12 -36 -8 5 -9 2 -5 -9 4 -12 1 -17 -12
-17 -23 0 -47 27 -56 62 -8 33 -31 43 -44 20 -18 -30 0 58 25 126 13 34 21 62
19 62 -11 0 -81 -140 -102 -204 l-23 -71 5 55 c5 56 45 190 72 245 9 17 35 58
59 92 l44 61 -33 -15 c-17 -9 -45 -25 -61 -36 -20 -14 -27 -16 -24 -6 2 8 38
32 80 54 84 44 102 57 67 48 -21 -6 -21 -5 -8 14 78 111 196 192 319 219 70
16 62 15 99 8z m196 -120 l30 -26 -42 21 c-44 22 -53 31 -30 31 6 -1 26 -12
42 -26z m-197 -9 c-2 -5 -7 -9 -12 -7 -10 3 -36 -17 -36 -29 0 -16 27 -9 45
11 14 16 26 19 47 15 18 -4 28 -2 28 5 0 6 4 8 10 5 5 -3 20 -8 32 -10 12 -3
24 -8 27 -12 3 -5 17 -17 30 -28 16 -13 22 -15 17 -5 -4 8 -1 6 6 -5 7 -11 27
-33 44 -50 65 -65 180 -254 170 -281 -4 -10 -2 -13 6 -8 8 5 9 2 4 -12 -7 -16
-10 -28 -15 -53 -1 -2 -9 3 -18 10 -10 7 -15 9 -11 5 4 -5 3 -15 -3 -23 -9 -9
-8 -13 0 -13 6 0 11 -7 11 -15 0 -8 -5 -15 -11 -15 -5 0 -7 5 -4 10 3 6 -1 10
-10 10 -10 0 -13 5 -9 12 4 7 3 8 -5 4 -9 -6 -9 -11 -1 -21 8 -9 6 -21 -7 -44
-19 -33 -41 -44 -23 -12 13 25 13 31 0 31 -6 0 -9 -3 -8 -7 3 -16 -14 -43 -24
-37 -6 4 -6 -2 1 -14 9 -17 8 -20 -6 -18 -10 2 -36 39 -62 88 -48 90 -88 150
-75 113 39 -107 54 -158 50 -162 -2 -2 -30 3 -63 12 -82 23 -97 23 -101 2 -8
-38 8 -68 43 -83 40 -17 46 -26 11 -20 -67 12 -123 65 -164 156 -22 47 -26 74
-30 182 -2 73 0 139 6 156 5 16 6 35 2 42 -13 21 -33 -96 -32 -185 2 -120 29
-207 106 -342 21 -36 22 -47 13 -68 -14 -29 -18 -30 -58 -10 -17 9 -27 21 -23
27 4 7 3 8 -4 4 -16 -10 -74 35 -63 48 29 38 15 102 -20 93 -13 -4 -19 0 -20
11 0 10 -2 25 -4 35 -6 31 23 248 41 307 37 125 107 214 162 207 7 -1 12 -6
10 -12z m339 -52 c-4 -3 -1 -16 7 -28 13 -20 13 -25 -4 -43 -16 -17 -17 -21
-4 -26 9 -3 12 -1 9 4 -3 6 -1 10 5 10 6 0 9 4 5 9 -3 5 -1 12 5 16 6 4 7 12
3 18 -3 7 2 4 13 -5 14 -13 23 -15 31 -7 7 7 12 6 16 -5 4 -9 2 -16 -3 -16 -6
0 -10 -5 -10 -11 0 -5 4 -8 10 -4 14 9 61 -6 54 -17 -4 -6 -1 -9 7 -6 21 7 71
-61 63 -86 -4 -12 -7 -27 -7 -33 0 -7 -4 -13 -9 -13 -4 0 -8 -5 -8 -11 0 -5 4
-8 8 -5 4 2 14 1 22 -5 12 -7 10 -9 -8 -9 -13 0 -21 -4 -18 -9 4 -5 -3 -7 -14
-4 -17 5 -18 8 -8 21 10 12 6 11 -14 -2 -25 -16 -42 -36 -19 -21 5 3 12 1 16
-5 3 -5 0 -10 -7 -10 -9 0 -9 -3 2 -10 11 -7 11 -10 2 -10 -7 0 -16 -10 -21
-22 -8 -21 -8 -21 -15 7 -4 16 -34 72 -66 124 -32 53 -61 106 -65 119 -3 12
-11 20 -16 17 -5 -4 -9 -1 -9 4 0 22 -2 26 -18 45 -9 11 -12 16 -5 13 6 -4 14
-3 18 3 3 5 11 10 17 10 7 0 6 -5 -2 -15 -10 -12 -9 -16 3 -21 9 -3 13 -12 10
-20 -3 -8 0 -14 6 -14 17 0 13 28 -6 39 -17 10 -17 10 0 11 9 0 16 3 16 8 -2
13 1 22 8 22 3 0 3 -3 0 -7z m-823 -145 c-5 -7 -25 -40 -46 -72 -21 -33 -38
-65 -38 -73 0 -7 -7 -13 -15 -13 -21 0 -20 59 1 88 14 21 90 82 101 82 2 0 1
-6 -3 -12z m-85 -463 c1 -16 -1 -17 -9 -5 -5 8 -9 31 -9 50 l1 35 8 -30 c4
-16 8 -39 9 -50z m786 35 c3 -5 -3 -10 -15 -10 -12 0 -18 5 -15 10 3 6 10 10
15 10 5 0 12 -4 15 -10z m46 -7 c13 -16 12 -17 -3 -4 -10 7 -18 15 -18 17 0 8
8 3 21 -13z m-176 -43 c34 0 28 -24 -6 -28 -17 -2 -34 7 -54 29 l-30 31 32
-16 c18 -9 44 -16 58 -16z m345 -14 c-12 -39 -40 -69 -40 -44 0 8 -12 25 -26
39 l-25 24 48 10 c26 6 50 10 51 9 2 -2 -1 -18 -8 -38z m-393 -52 c-3 -3 -12
-4 -19 -1 -8 3 -5 6 6 6 11 1 17 -2 13 -5z m143 -115 c0 -12 -7 -19 -20 -19
-24 0 -38 29 -20 40 19 12 40 1 40 -21z m120 27 c0 -3 -4 -8 -10 -11 -5 -3
-10 -1 -10 4 0 6 5 11 10 11 6 0 10 -2 10 -4z m-658 -126 c2 -30 3 -57 2 -59
-2 -1 -13 4 -25 12 -33 24 -59 68 -59 104 l0 32 39 -17 c38 -16 40 -19 43 -72z
m587 55 c2 -2 1 -11 -3 -20 -6 -17 -38 -13 -64 8 -11 8 -11 12 0 19 12 7 57 2
67 -7z m346 -213 c20 -60 19 -81 -6 -165 l-21 -71 -25 53 c-36 76 -96 113
-175 109 l-56 -3 16 28 c10 16 38 52 63 80 37 42 53 52 78 52 30 0 31 -1 32
-45 1 -37 2 -41 9 -20 4 14 9 41 9 60 l2 35 29 -34 c16 -19 36 -55 45 -79z
m-273 -14 l-22 -33 0 37 c0 36 16 54 34 37 5 -4 0 -22 -12 -41z m-32 -13 c0
-16 -8 -25 -27 -31 -43 -12 -46 -11 -54 18 -4 15 -4 27 -1 26 4 -1 14 1 22 5
50 19 60 16 60 -18z m-92 -20 c10 -22 9 -25 -12 -31 -29 -7 -66 11 -66 32 0 8
3 13 8 11 4 -3 16 -1 27 4 30 11 31 11 43 -16z m-152 -77 c11 -123 11 -123
-14 -126 -12 -2 -21 0 -20 5 5 17 -33 72 -72 105 -22 19 -40 38 -40 41 0 3 13
8 29 12 16 3 35 13 42 22 15 17 50 33 60 27 4 -2 10 -41 15 -86z m58 77 c3 -9
0 -15 -8 -15 -7 0 -19 7 -26 15 -10 12 -9 15 8 15 11 0 22 -7 26 -15z m-364
-21 c31 -7 32 -9 27 -45 -4 -30 -2 -39 10 -39 31 0 142 -61 172 -95 24 -27 31
-45 30 -73 l-1 -37 -8 38 c-19 100 -176 176 -363 177 -43 0 -87 -5 -99 -11
-28 -15 -34 -4 -16 34 11 23 27 37 50 44 38 13 150 16 198 7z m428 -26 c31 0
70 5 86 11 44 18 42 7 -9 -35 -25 -20 -53 -50 -61 -65 -16 -32 -89 -109 -102
-109 -5 0 -7 10 -5 23 2 12 -3 56 -11 97 -23 109 -23 112 15 93 16 -8 56 -15
87 -15z m280 -7 c20 -10 45 -28 55 -39 24 -26 46 -89 40 -112 -18 -68 -173
-169 -173 -113 0 63 -87 153 -148 153 -42 0 -40 15 5 56 78 72 152 90 221 55z
m-703 -75 c110 -29 211 -95 203 -134 -11 -53 -141 -78 -258 -48 -144 37 -237
140 -162 180 34 19 150 20 217 2z m493 -52 c15 -4 21 -12 18 -21 -4 -8 -1 -11
5 -7 14 8 59 -16 59 -32 0 -7 4 -14 9 -16 4 -1 11 -12 15 -23 5 -17 0 -23 -30
-34 -37 -13 -53 -6 -54 25 0 6 -11 17 -25 24 -14 7 -25 17 -25 21 0 4 -16 10
-35 13 -42 8 -44 16 -7 38 30 19 37 20 70 12z m-41 -84 c18 -10 40 -34 49 -51
16 -32 16 -33 -10 -56 -32 -27 -60 -28 -101 -4 -24 15 -30 24 -28 50 1 29 35
81 52 81 3 0 20 -9 38 -20z m-147 -14 c0 -25 -16 -43 -28 -31 -3 3 0 10 8 15
10 6 11 10 3 10 -7 0 -10 7 -7 15 9 23 24 18 24 -9z m-539 -3 c13 -16 12 -17
-3 -4 -17 13 -22 21 -14 21 2 0 10 -8 17 -17z m496 -5 c-3 -8 -6 -5 -6 6 -1
11 2 17 5 13 3 -3 4 -12 1 -19z m583 -33 c0 -28 -4 -35 -20 -35 -22 0 -26 20
-10 51 16 30 30 23 30 -16z m50 5 c0 -19 -5 -30 -14 -30 -10 0 -14 10 -14 30
1 18 6 30 15 30 8 0 13 -12 13 -30z m-1015 -38 c-5 -5 -83 36 -89 47 -3 5 16
-3 43 -18 27 -14 48 -27 46 -29z m911 12 c-3 -8 -19 -14 -36 -14 -38 0 -40 24
-2 44 24 12 28 12 35 0 5 -9 6 -22 3 -30z m-566 22 c0 -2 -8 -10 -17 -17 -16
-13 -17 -12 -4 4 13 16 21 21 21 13z m380 -5 c0 -5 -13 -19 -29 -30 -27 -20
-30 -20 -33 -4 -2 12 6 22 22 30 32 14 40 15 40 4z m-484 -36 c11 -10 5 -14
-28 -19 -48 -8 -165 3 -148 14 7 4 10 12 7 16 -8 14 155 4 169 -11z m201 -5
c7 -20 8 -43 2 -70 -6 -26 -6 -48 1 -59 8 -16 5 -20 -15 -23 -15 -3 -26 0 -30
10 -7 20 6 141 17 148 4 3 6 10 3 15 -4 5 -2 9 2 9 5 0 14 -13 20 -30z m378
11 c-8 -14 -66 -24 -76 -14 -5 5 4 10 23 11 18 2 34 5 37 7 8 9 22 5 16 -4z
m-299 -183 c35 -6 64 -15 64 -19 0 -5 7 -6 15 -3 8 4 21 1 29 -5 7 -6 16 -8
19 -4 4 3 7 -1 7 -10 0 -9 -6 -16 -12 -14 -7 1 -12 -4 -10 -12 2 -10 -5 -12
-30 -7 -18 3 -72 9 -120 12 -61 5 -88 11 -88 20 0 7 -3 19 -6 27 -4 11 2 17
18 20 40 8 49 7 114 -5z m380 -20 c47 -8 64 -16 64 -27 -1 -36 -13 -40 -90
-30 -41 5 -90 7 -107 4 -31 -6 -33 -4 -33 24 0 20 6 31 18 34 32 9 85 7 148
-5z m94 -54 c0 -14 -5 -24 -11 -22 -6 2 -10 7 -10 11 1 4 1 16 1 28 0 11 5 17
10 14 6 -3 10 -18 10 -31z m-588 -16 c-5 -7 -12 -22 -14 -33 -5 -18 -6 -18
-13 -2 -10 23 1 47 21 47 12 0 14 -3 6 -12z"/>
<path d="M1633 1838 c-15 -19 -24 -49 -18 -59 7 -10 55 10 55 24 0 5 -9 7 -19
4 -13 -3 -18 -1 -14 9 2 7 11 10 18 8 7 -3 16 1 21 8 4 7 4 10 -1 6 -4 -4 -14
-3 -20 2 -9 7 -15 6 -22 -2z"/>
<path d="M2170 1436 c0 -9 5 -16 10 -16 6 0 10 4 10 9 0 6 -4 13 -10 16 -5 3
-10 -1 -10 -9z"/>
<path d="M57 1873 c-45 -74 -58 -111 -55 -165 3 -69 12 -66 14 5 0 35 9 69 28
105 15 30 25 56 23 59 -3 2 -7 1 -10 -4z"/>
<path d="M1664 1200 c-33 -13 -64 -59 -64 -94 1 -41 33 -112 58 -125 12 -6 39
-11 62 -11 35 0 48 6 77 35 33 33 35 39 30 81 -5 51 -34 89 -84 110 -36 16
-49 16 -79 4z m14 -138 c3 -16 -2 -22 -17 -22 -24 0 -35 15 -27 36 9 23 40 13
44 -14z m122 -22 c0 -22 -46 -50 -84 -50 -13 0 -32 8 -42 18 -17 16 -15 17 29
22 26 3 52 11 59 18 18 18 38 14 38 -8z"/>
<path d="M1881 994 c-21 -27 -28 -54 -13 -54 5 0 18 14 31 30 25 34 45 34 90
-1 26 -21 49 -15 30 8 -18 21 -64 43 -93 43 -15 0 -33 -11 -45 -26z"/>
<path d="M1530 341 c-26 -50 0 -103 39 -81 34 17 22 100 -14 100 -8 0 -19 -9
-25 -19z m48 -46 c-4 -25 -36 -32 -44 -10 -4 9 -1 28 6 43 11 26 12 26 26 7 8
-11 13 -29 12 -40z"/>
<path d="M1480 150 c-7 -4 -28 -6 -47 -3 -26 5 -33 2 -33 -11 0 -9 -7 -19 -16
-23 -10 -4 -14 -13 -10 -29 3 -12 1 -26 -4 -29 -15 -9 7 -35 29 -35 9 0 22 -5
28 -11 7 -7 24 -8 43 -4 23 5 29 10 19 16 -8 4 -19 3 -27 -4 -11 -9 -17 -7
-27 6 -7 10 -19 15 -28 11 -19 -7 -33 14 -18 29 7 7 7 14 0 24 -9 10 -8 13 5
13 9 0 16 8 16 20 0 23 4 24 30 10 14 -8 25 -7 40 2 31 19 48 -4 21 -29 -20
-19 -20 -19 14 -15 27 3 35 1 35 -12 0 -11 -9 -16 -32 -16 -29 0 -30 -1 -13
-13 10 -8 15 -19 11 -25 -4 -7 -3 -12 2 -12 6 0 19 15 31 32 20 32 20 33 1 54
-11 11 -20 25 -20 32 0 17 -34 32 -50 22z"/>
<path d="M73 133 c20 -2 54 -2 75 0 20 2 3 4 -38 4 -41 0 -58 -2 -37 -4z"/>
<path d="M203 123 c9 -2 25 -2 35 0 9 3 1 5 -18 5 -19 0 -27 -2 -17 -5z"/>
<path d="M266 115 c4 -10 21 -15 54 -15 76 0 112 -10 105 -29 -5 -13 -4 -14 6
-3 22 21 -5 34 -80 40 -39 2 -71 9 -71 13 0 5 -4 9 -10 9 -5 0 -7 -7 -4 -15z"/>
<path d="M1823 103 c9 -2 17 -9 17 -14 0 -5 5 -9 11 -9 8 0 8 5 -1 15 -7 8
-20 14 -29 14 -13 -1 -13 -2 2 -6z"/>
<path d="M1923 73 c15 -2 37 -2 50 0 12 2 0 4 -28 4 -27 0 -38 -2 -22 -4z"/>
<path d="M1996 55 c-3 -8 -1 -15 4 -15 6 0 10 7 10 15 0 8 -2 15 -4 15 -2 0
-6 -7 -10 -15z"/>
<path d="M313 43 c9 -2 23 -2 30 0 6 3 -1 5 -18 5 -16 0 -22 -2 -12 -5z"/>
<path d="M193 33 c9 -2 23 -2 30 0 6 3 -1 5 -18 5 -16 0 -22 -2 -12 -5z"/>
<path d="M1908 23 c7 -3 16 -2 19 1 4 3 -2 6 -13 5 -11 0 -14 -3 -6 -6z"/>
</g>
</svg>
